<mxfile host="app.diagrams.net" agent="Mozilla/5.0 (Windows NT 10.0; Win64; x64) AppleWebKit/537.36 (KHTML, like Gecko) Chrome/138.0.0.0 Safari/537.36 Edg/138.0.0.0" version="28.0.7">
  <diagram name="Page-1" id="d_gTWJkHQtq6hTqlilIR">
    <mxGraphModel dx="534" dy="446" grid="1" gridSize="10" guides="1" tooltips="1" connect="1" arrows="1" fold="1" page="1" pageScale="1" pageWidth="850" pageHeight="1100" math="0" shadow="0">
      <root>
        <mxCell id="0" />
        <mxCell id="1" parent="0" />
        <mxCell id="Y0-HIklbiw6NhuluLYWq-12" style="edgeStyle=orthogonalEdgeStyle;rounded=0;orthogonalLoop=1;jettySize=auto;html=1;exitX=0.5;exitY=1;exitDx=0;exitDy=0;entryX=0.5;entryY=0;entryDx=0;entryDy=0;" edge="1" parent="1" source="Y0-HIklbiw6NhuluLYWq-1" target="Y0-HIklbiw6NhuluLYWq-5">
          <mxGeometry relative="1" as="geometry" />
        </mxCell>
        <mxCell id="Y0-HIklbiw6NhuluLYWq-1" value="BUILD" style="ellipse;whiteSpace=wrap;html=1;fillColor=#f0a30a;fontColor=light-dark(#000000, #170202);strokeColor=#BD7000;gradientColor=default;fontStyle=1" vertex="1" parent="1">
          <mxGeometry x="270" y="220" width="120" height="60" as="geometry" />
        </mxCell>
        <mxCell id="Y0-HIklbiw6NhuluLYWq-11" style="edgeStyle=orthogonalEdgeStyle;rounded=0;orthogonalLoop=1;jettySize=auto;html=1;exitX=0.5;exitY=1;exitDx=0;exitDy=0;entryX=0.5;entryY=0;entryDx=0;entryDy=0;" edge="1" parent="1" source="Y0-HIklbiw6NhuluLYWq-2" target="Y0-HIklbiw6NhuluLYWq-1">
          <mxGeometry relative="1" as="geometry" />
        </mxCell>
        <mxCell id="Y0-HIklbiw6NhuluLYWq-2" value="DEVELOP" style="ellipse;whiteSpace=wrap;html=1;fillColor=#f0a30a;fontColor=light-dark(#000000, #180101);strokeColor=#BD7000;gradientColor=default;fontStyle=1" vertex="1" parent="1">
          <mxGeometry x="270" y="120" width="120" height="60" as="geometry" />
        </mxCell>
        <mxCell id="Y0-HIklbiw6NhuluLYWq-10" style="edgeStyle=orthogonalEdgeStyle;rounded=0;orthogonalLoop=1;jettySize=auto;html=1;exitX=0.5;exitY=1;exitDx=0;exitDy=0;entryX=0.5;entryY=0;entryDx=0;entryDy=0;" edge="1" parent="1" source="Y0-HIklbiw6NhuluLYWq-3" target="Y0-HIklbiw6NhuluLYWq-2">
          <mxGeometry relative="1" as="geometry" />
        </mxCell>
        <mxCell id="Y0-HIklbiw6NhuluLYWq-3" value="PLAN" style="ellipse;whiteSpace=wrap;html=1;fillColor=#f0a30a;strokeColor=#BD7000;fontColor=light-dark(#000000,#0A0A0A);gradientColor=default;fontStyle=1" vertex="1" parent="1">
          <mxGeometry x="270" y="20" width="120" height="60" as="geometry" />
        </mxCell>
        <mxCell id="Y0-HIklbiw6NhuluLYWq-13" style="edgeStyle=orthogonalEdgeStyle;rounded=0;orthogonalLoop=1;jettySize=auto;html=1;exitX=0.5;exitY=1;exitDx=0;exitDy=0;entryX=0.5;entryY=0;entryDx=0;entryDy=0;" edge="1" parent="1" source="Y0-HIklbiw6NhuluLYWq-5" target="Y0-HIklbiw6NhuluLYWq-6">
          <mxGeometry relative="1" as="geometry" />
        </mxCell>
        <mxCell id="Y0-HIklbiw6NhuluLYWq-5" value="TEST" style="ellipse;whiteSpace=wrap;html=1;fillColor=#f0a30a;fontColor=light-dark(#000000, #130606);strokeColor=#BD7000;gradientColor=default;fontStyle=1" vertex="1" parent="1">
          <mxGeometry x="270" y="330" width="120" height="60" as="geometry" />
        </mxCell>
        <mxCell id="Y0-HIklbiw6NhuluLYWq-14" style="edgeStyle=orthogonalEdgeStyle;rounded=0;orthogonalLoop=1;jettySize=auto;html=1;exitX=0.5;exitY=1;exitDx=0;exitDy=0;entryX=0.5;entryY=0;entryDx=0;entryDy=0;" edge="1" parent="1" source="Y0-HIklbiw6NhuluLYWq-6" target="Y0-HIklbiw6NhuluLYWq-7">
          <mxGeometry relative="1" as="geometry" />
        </mxCell>
        <mxCell id="Y0-HIklbiw6NhuluLYWq-6" value="RELEASE" style="ellipse;whiteSpace=wrap;html=1;fillColor=#f0a30a;fontColor=light-dark(#000000,#000000);strokeColor=#BD7000;gradientColor=default;fontStyle=1" vertex="1" parent="1">
          <mxGeometry x="270" y="440" width="120" height="60" as="geometry" />
        </mxCell>
        <mxCell id="Y0-HIklbiw6NhuluLYWq-15" style="edgeStyle=orthogonalEdgeStyle;rounded=0;orthogonalLoop=1;jettySize=auto;html=1;exitX=0.5;exitY=1;exitDx=0;exitDy=0;entryX=0.5;entryY=0;entryDx=0;entryDy=0;" edge="1" parent="1" source="Y0-HIklbiw6NhuluLYWq-7" target="Y0-HIklbiw6NhuluLYWq-8">
          <mxGeometry relative="1" as="geometry" />
        </mxCell>
        <mxCell id="Y0-HIklbiw6NhuluLYWq-7" value="DEPLOY" style="ellipse;whiteSpace=wrap;html=1;fillColor=#f0a30a;fontColor=light-dark(#000000,#000000);strokeColor=#BD7000;gradientColor=default;fontStyle=1" vertex="1" parent="1">
          <mxGeometry x="270" y="550" width="120" height="60" as="geometry" />
        </mxCell>
        <mxCell id="Y0-HIklbiw6NhuluLYWq-16" style="edgeStyle=orthogonalEdgeStyle;rounded=0;orthogonalLoop=1;jettySize=auto;html=1;exitX=0.5;exitY=1;exitDx=0;exitDy=0;entryX=0.5;entryY=0;entryDx=0;entryDy=0;" edge="1" parent="1" source="Y0-HIklbiw6NhuluLYWq-8" target="Y0-HIklbiw6NhuluLYWq-9">
          <mxGeometry relative="1" as="geometry" />
        </mxCell>
        <mxCell id="Y0-HIklbiw6NhuluLYWq-8" value="OPERATE" style="ellipse;whiteSpace=wrap;html=1;fillColor=#f0a30a;fontColor=light-dark(#000000,#000000);strokeColor=#BD7000;gradientColor=default;fontStyle=1" vertex="1" parent="1">
          <mxGeometry x="270" y="660" width="120" height="60" as="geometry" />
        </mxCell>
        <mxCell id="Y0-HIklbiw6NhuluLYWq-9" value="MONITOR" style="ellipse;whiteSpace=wrap;html=1;fillColor=#f0a30a;fontColor=light-dark(#000000,#000000);strokeColor=#BD7000;gradientColor=default;fontStyle=1" vertex="1" parent="1">
          <mxGeometry x="270" y="770" width="120" height="60" as="geometry" />
        </mxCell>
      </root>
    </mxGraphModel>
  </diagram>
</mxfile>
